<svg id="img-nso-logo_pc.svg" xmlns="http://www.w3.org/2000/svg" width="357" height="127.84" viewBox="0 0 357 127.84">
  <defs>
    <style>
      .cls-1 {
        fill: #fff;
        fill-rule: evenodd;
      }
    </style>
  </defs>
  <path id="img-nso-logo.svg" class="cls-1" d="M95.147,1839.36a6.128,6.128,0,1,0,6.127-6.09A6.1,6.1,0,0,0,95.147,1839.36Zm20.811-19.42H101.712A16.655,16.655,0,0,0,85,1836.54v31.52a16.655,16.655,0,0,0,16.713,16.6h14.246a0.482,0.482,0,0,0,.478-0.48v-63.76A0.482,0.482,0,0,0,115.958,1819.94Zm-4.777,59.5h-9.47a11.414,11.414,0,0,1-8.1-3.33,11.273,11.273,0,0,1-3.356-8.05v-31.52a11.275,11.275,0,0,1,3.355-8.05,11.457,11.457,0,0,1,8.1-3.33h9.47v54.28Zm22.284-59.5H123.382a0.426,0.426,0,0,0-.425.43v63.81a0.482,0.482,0,0,0,.478.48h10.03a16.655,16.655,0,0,0,16.712-16.6v-31.52A16.655,16.655,0,0,0,133.465,1819.94Zm2.387,42.14a6.545,6.545,0,1,1,6.59-6.54A6.566,6.566,0,0,1,135.852,1862.08Zm131.825,15.04v-45.58H257.93v29.4l-22.855-29.4h-9.25v45.58h9.284v-30.39l24.436,30.39h8.132Zm-77.806-47.06c-13.7,0-24.8,10.87-24.8,24.27s11.106,24.27,24.8,24.27,24.806-10.86,24.806-24.27S203.572,1830.06,189.871,1830.06Zm0,39.27a15,15,0,1,1,14.594-15A14.8,14.8,0,0,1,189.871,1869.33Zm101.017-37.79h-9.861v45.58h35.021v-8.89h-25.16v-36.69Zm44.589,0h-9.86v45.58h9.86v-45.58ZM442,1840.43v-8.89h-37.91v45.58H442v-8.89H413.952v-10.29H440.64v-8.44H413.952v-9.07H442Zm-61.069,20.51-22.855-29.4h-9.25v45.58h9.284v-30.39l24.436,30.39h8.132v-45.58h-9.747v29.4Zm-225.709,38.85a1.476,1.476,0,0,0-1.492,1.5,1.5,1.5,0,0,0,2.993,0A1.483,1.483,0,0,0,155.223,1899.79Zm23.036,11.03a1.247,1.247,0,0,1-1.3-1.47v-3.16h3.156v-2.07h-3.156v-2.57H174.61v2.57h-1.681v2.07h1.681v3.35c0,2.24,1.1,3.45,3.262,3.45a4.866,4.866,0,0,0,2.885-.91l-0.863-1.82A3.372,3.372,0,0,1,178.259,1910.82Zm9.929-6.93a4.551,4.551,0,0,0,.117,9.1,5.314,5.314,0,0,0,3.712-1.31l-1.375-1.5a3.518,3.518,0,0,1-2.2.83,2.1,2.1,0,0,1-2.238-1.8h6.174a6.4,6.4,0,0,0,.046-0.78C192.412,1905.73,190.7,1903.89,188.188,1903.89Zm-1.977,3.74a1.939,1.939,0,0,1,3.856,0h-3.856Zm-20.344-3.74a2.924,2.924,0,0,0-2.562,1.25v-1.02h-2.283v8.65h2.347v-4.74a1.784,1.784,0,0,1,1.842-1.96,1.662,1.662,0,0,1,1.7,1.94v4.76h2.346v-5.51A3.229,3.229,0,0,0,165.867,1903.89Zm-11.8,8.88h2.347v-8.65h-2.347v8.65Zm47.262-8.88a2.924,2.924,0,0,0-2.562,1.25v-1.02H196.48v8.65h2.346v-4.74a1.785,1.785,0,0,1,1.843-1.96,1.662,1.662,0,0,1,1.7,1.94v4.76h2.346v-5.51A3.229,3.229,0,0,0,201.325,1903.89Zm-54.578,4.69-6.391-8.34H138.01v12.49h2.508l0.009-8.34,6.381,8.34h2.355v-12.49h-2.516v8.34Zm199.537-4.69a2.923,2.923,0,0,0-2.562,1.25v-1.02h-2.283v8.65h2.346v-4.74a1.785,1.785,0,0,1,1.843-1.96,1.663,1.663,0,0,1,1.7,1.94v4.76h2.346v-5.51A3.229,3.229,0,0,0,346.284,1903.89Zm7.923,8.88h2.346v-12.85h-2.346v12.85Zm-23.582-12.73a6.481,6.481,0,1,0,6.615,6.48A6.318,6.318,0,0,0,330.625,1900.04Zm0,10.57a4.091,4.091,0,1,1,3.99-4.09A3.877,3.877,0,0,1,330.625,1910.61Zm30.541,2.16h2.346v-8.65h-2.346v8.65Zm1.159-12.98a1.475,1.475,0,0,0-1.491,1.5,1.5,1.5,0,0,0,2.993,0A1.483,1.483,0,0,0,362.325,1899.79Zm-53.5,4.1a2.921,2.921,0,0,0-2.5,1.16v-5.14h-2.346v12.86h2.346v-4.74a1.785,1.785,0,0,1,1.843-1.96,1.663,1.663,0,0,1,1.7,1.94v4.76h2.345v-5.51A3.229,3.229,0,0,0,308.822,1903.89Zm75.936,0a4.551,4.551,0,0,0,.117,9.1,5.314,5.314,0,0,0,3.712-1.31l-1.376-1.5a3.516,3.516,0,0,1-2.2.83,2.1,2.1,0,0,1-2.238-1.8h6.175a6.416,6.416,0,0,0,.045-0.78C388.982,1905.73,387.266,1903.89,384.758,1903.89Zm-1.977,3.74a1.938,1.938,0,0,1,3.854,0h-3.854Zm-9.812-3.74a2.922,2.922,0,0,0-2.561,1.25v-1.02h-2.284v8.65h2.347v-4.74a1.785,1.785,0,0,1,1.842-1.96,1.662,1.662,0,0,1,1.7,1.94v4.76h2.346v-5.51A3.229,3.229,0,0,0,372.969,1903.89Zm-76.395,6.93a2.389,2.389,0,0,1,.009-4.76,2.42,2.42,0,0,1,1.86.86l1.69-1.4a4.274,4.274,0,0,0-3.487-1.63,4.551,4.551,0,1,0,0,9.1,4.307,4.307,0,0,0,3.5-1.62l-1.672-1.42A2.567,2.567,0,0,1,296.574,1910.82Zm-81.089-5.8a3.164,3.164,0,0,0-2.561-1.13,4.563,4.563,0,0,0,0,9.1,3.2,3.2,0,0,0,2.607-1.18v0.96h2.292v-12.85h-2.338v5.1Zm-2.13,5.8a2.384,2.384,0,1,1,2.247-2.38A2.23,2.23,0,0,1,213.355,1910.82Zm35.757-5.4-0.709-.11c-1.511-.25-2.6-0.53-2.6-1.45,0-.94,1-1.5,2.408-1.5a6.857,6.857,0,0,1,3.569,1.06l1.186-2.03a8.876,8.876,0,0,0-4.808-1.33c-2.678,0-5.015,1.36-5.015,3.96,0,2.26,1.617,3.23,3.837,3.58l0.8,0.13c1.753,0.27,2.669.59,2.669,1.46,0,0.96-1.079,1.51-2.471,1.51a6.692,6.692,0,0,1-4.009-1.35l-1.3,2.01a8.8,8.8,0,0,0,5.3,1.63c2.706,0,5.15-1.31,5.15-4.07C253.121,1906.74,251.36,1905.79,249.112,1905.42Zm-22.521-1.53a4.553,4.553,0,1,0,4.718,4.55A4.5,4.5,0,0,0,226.591,1903.89Zm0,6.93a2.381,2.381,0,1,1,2.319-2.38A2.266,2.266,0,0,1,226.591,1910.82Zm40.53-.63-1.978-6.07h-2.472l-1.95,6.04-1.86-6.04h-2.5l2.948,8.65h2.661l1.914-5.85,1.932,5.85H268.5l2.947-8.65h-2.454Zm19.362,0.63a1.247,1.247,0,0,1-1.3-1.47v-3.16h3.155v-2.07h-3.155v-2.57h-2.345v2.57h-1.681v2.07h1.681v3.35c0,2.24,1.105,3.45,3.262,3.45a4.866,4.866,0,0,0,2.885-.91l-0.862-1.82A3.368,3.368,0,0,1,286.483,1910.82Zm-11.426,1.95H277.4v-8.65h-2.346v8.65Zm1.16-12.98a1.475,1.475,0,0,0-1.492,1.5,1.5,1.5,0,0,0,2.993,0A1.484,1.484,0,0,0,276.217,1899.79Z" transform="translate(-85 -1785.16)"/>
  <path id="もっと楽しく_もっと便利に.svg" data-name="もっと楽しく、もっと便利に.svg" class="cls-1" d="M138.145,1785.7l-0.46,2.62H133.35v2.43h3.913l-0.4,2.35h-3.72v2.4h3.317a15.87,15.87,0,0,0-.23,2.5,4.255,4.255,0,0,0,1.611,3.66,7.5,7.5,0,0,0,4.526,1.29,8.273,8.273,0,0,0,4.871-1.35,4.635,4.635,0,0,0,1.764-3.85,7.639,7.639,0,0,0-.786-3.08l-2.57.18a8.313,8.313,0,0,1,.537,2.83c0,1.73-1.3,2.63-3.759,2.63a4.145,4.145,0,0,1-2.723-.79,2.144,2.144,0,0,1-.633-1.75,17.05,17.05,0,0,1,.231-2.27h5.139v-2.4h-4.756l0.4-2.35h5.542v-2.43h-5.139l0.383-2.37Zm17.15,5.84,0.537,2.46,0.71-.12a47.054,47.054,0,0,1,7.345-1c2.013,0,2.934.89,2.934,2.81a3.546,3.546,0,0,1-2.167,3.2c-1.132.56-2.743,0.86-5.658,1.1l0.844,2.4a16.29,16.29,0,0,0,6.751-1.65,5.614,5.614,0,0,0,2.857-4.85,5.524,5.524,0,0,0-1.438-3.95,5.465,5.465,0,0,0-4.085-1.39,56.479,56.479,0,0,0-7.94.89Zm35.656,8a54.628,54.628,0,0,1-6.251.37c-3.932,0-5.428-.5-5.428-1.79a3.725,3.725,0,0,1,2.148-2.72,42.441,42.441,0,0,1,9.8-3.63l-0.882-2.49a49.63,49.63,0,0,0-7.173,2.56,48.459,48.459,0,0,1-1.917-5.98l-2.724.71a48.82,48.82,0,0,0,2.282,6.41c-2.838,1.48-4.334,3.37-4.334,5.49a3.6,3.6,0,0,0,2.589,3.4c1.151,0.48,3.2.7,6.348,0.7a48.339,48.339,0,0,0,5.773-.31Zm13.871-4.96v1.06h-7.69v2.29h5.695a17.757,17.757,0,0,1-5.849,3.06l1.477,2.23a16.52,16.52,0,0,0,6.367-4.5v4.9h2.723v-5a19.233,19.233,0,0,0,6.578,4.37l1.438-2.31a21.679,21.679,0,0,1-5.772-2.75h5.562v-2.29h-7.806v-1.06H210.4v-7.78h-3.337c0.211-.38.517-1,0.652-1.33l-2.762-.25c-0.134.64-.268,1.1-0.4,1.58H202.08v7.78h2.742Zm-0.249-1.77v-1.29h3.317v1.29h-3.317Zm0-3.01v-1.15h3.317v1.15h-3.317Zm-2.609-1.67a15.071,15.071,0,0,0-2.723-2.35l-1.841,1.77a18.786,18.786,0,0,1,2.743,2.48Zm-3.816,7.26a22.756,22.756,0,0,0,3.759-2.6l-0.959-2.18a23.777,23.777,0,0,1-3.989,2.52Zm14.134-5.39a21.475,21.475,0,0,0,2.8-2.93l-2.2-1.46a17.643,17.643,0,0,1-2.378,2.79Zm3.222,3.1a22.548,22.548,0,0,0-3.375-2.64l-1.669,1.75a22.872,22.872,0,0,1,3.414,2.87Zm6.18-6.97v11.16c0,3.6,2.167,5.68,5.964,5.68a6.86,6.86,0,0,0,5.677-2.6,14.211,14.211,0,0,0,2.186-5.04l-2.474-1.48c-1.054,4.5-2.627,6.37-5.35,6.37-1.956,0-3.165-1.1-3.165-2.89v-11.2h-2.838Zm33.566,14.74a83.153,83.153,0,0,0-9.934-6.14,0.709,0.709,0,0,1-.518-0.44,0.907,0.907,0,0,1,.518-0.44c2.091-1.12,6.578-3.99,9.186-5.87l-1.687-2.2a94.171,94.171,0,0,1-9.8,6.41,3.214,3.214,0,0,0-1.208.79,2.019,2.019,0,0,0-.614,1.33,2.24,2.24,0,0,0,1.266,1.83,98.791,98.791,0,0,1,11.123,7.12Zm12.144,0.75a34.333,34.333,0,0,0-4.123-5.08l-1.994,1.75a37.035,37.035,0,0,1,3.97,5.2Zm14.042-15.92-0.46,2.62h-4.334v2.43h3.912l-0.4,2.35h-3.72v2.4h3.317a15.87,15.87,0,0,0-.23,2.5,4.255,4.255,0,0,0,1.611,3.66,7.5,7.5,0,0,0,4.526,1.29,8.271,8.271,0,0,0,4.871-1.35,4.636,4.636,0,0,0,1.765-3.85,7.642,7.642,0,0,0-.787-3.08l-2.569.18a8.337,8.337,0,0,1,.537,2.83c0,1.73-1.305,2.63-3.759,2.63a4.145,4.145,0,0,1-2.723-.79,2.14,2.14,0,0,1-.633-1.75,17.007,17.007,0,0,1,.23-2.27h5.139v-2.4H282.97l0.4-2.35h5.542v-2.43h-5.139l0.383-2.37Zm17.15,5.84,0.537,2.46,0.71-.12a47.054,47.054,0,0,1,7.345-1c2.014,0,2.934.89,2.934,2.81a3.546,3.546,0,0,1-2.167,3.2c-1.131.56-2.742,0.86-5.657,1.1l0.843,2.4a16.29,16.29,0,0,0,6.751-1.65,5.614,5.614,0,0,0,2.857-4.85,4.929,4.929,0,0,0-5.523-5.34,56.457,56.457,0,0,0-7.939.89Zm35.657,8a54.645,54.645,0,0,1-6.252.37c-3.932,0-5.428-.5-5.428-1.79a3.725,3.725,0,0,1,2.148-2.72,42.441,42.441,0,0,1,9.8-3.63l-0.882-2.49a49.618,49.618,0,0,0-7.172,2.56,48.458,48.458,0,0,1-1.918-5.98l-2.723.71a48.531,48.531,0,0,0,2.282,6.41c-2.839,1.48-4.334,3.37-4.334,5.49a3.6,3.6,0,0,0,2.589,3.4c1.15,0.48,3.2.7,6.347,0.7a48.339,48.339,0,0,0,5.773-.31Zm16.593-10.02h-4.487v7.62h4.43a5.085,5.085,0,0,1-.384,1.52,12.345,12.345,0,0,1-2.071-1.41l-1.668,1.37a16.126,16.126,0,0,0,2.3,1.75,8.324,8.324,0,0,1-3.912,1.08l1.265,2.33a9.708,9.708,0,0,0,5.006-2.14,28.776,28.776,0,0,0,6.559,2.02l1.15-2.52a26.651,26.651,0,0,1-6.386-1.46,8.606,8.606,0,0,0,.518-2.54H357.8v-7.62h-4.6v-1.12h5.274v-2.27H345.927v2.27h4.909v1.12Zm0,1.84v1.1H348.8v-1.1h2.032Zm2.359,0h2.11v1.1H353.2v-1.1Zm-2.359,2.72v1.15H348.8v-1.15h2.032Zm2.359,0h2.11v1.15H353.2v-1.15Zm-8.4-4.45c0.461-1.29.768-2.31,1.189-3.93l-2.493-.53a26.207,26.207,0,0,1-3.413,8.62l1.035,3.1a22.164,22.164,0,0,0,1.208-1.93v8.66H344.8v-13.99Zm22.022,13.99h2.493v-6.81a24.043,24.043,0,0,1,1.994,2.17l1.362-2.29a19.825,19.825,0,0,0-3.356-2.52v-1h3.279v-2.35H369.31v-2.52a25.35,25.35,0,0,0,2.991-.77l-1.38-2.08a37.156,37.156,0,0,1-7.614,1.58l0.94,2.06c1.208-.13,1.783-0.21,2.57-0.33v2.06H363.25v2.35h3.087a16.151,16.151,0,0,1-3.452,5.24l1.4,2.48a17.666,17.666,0,0,0,2.532-4.46v7.19Zm6.75-16.18v11.24H376v-11.24h-2.436Zm4.181-1.72v14.4c0,0.58-.134.73-0.69,0.73a19.864,19.864,0,0,1-2.877-.25l0.479,2.62c1.036,0.1,2.4.15,3.2,0.15,1.841,0,2.4-.54,2.4-2.29v-15.36h-2.512Zm12.413,16.88a51.841,51.841,0,0,1-.441-7.04,53.279,53.279,0,0,1,.729-9.2l-2.647-.27a64.564,64.564,0,0,0-.786,10.34,48.091,48.091,0,0,0,.383,6.5Zm2.9-14.86v2.64h9.148v-2.64h-9.148Zm9.608,11.4a38.574,38.574,0,0,1-4.258.29,8.179,8.179,0,0,1-3.279-.52,1.23,1.23,0,0,1-.71-1.21,3.088,3.088,0,0,1,.537-1.66l-2.282-.98a4.838,4.838,0,0,0-.959,2.98,3.564,3.564,0,0,0,2.129,3.35,11.162,11.162,0,0,0,4.507.73,34.969,34.969,0,0,0,4.564-.29Z" transform="translate(-85 -1785.16)"/>
</svg>
