<?xml version="1.0" encoding="UTF-8"?>
<svg id="Capa_1" data-name="Capa 1" xmlns="http://www.w3.org/2000/svg" viewBox="0 0 395.23 95.26">
  <path d="M95.23,47.62c0,7.55,.03,15.11,0,22.66-.06,13.34-9.53,23.61-22.87,24.68-5,.4-10.03,.33-15.05,.21-1.57-.04-2.21-.77-2.2-2.21,.05-8.44-.15-16.88,.11-25.32,.18-5.52,.21-11.04-.04-16.56-.06-1.27-.09-2.54-.09-3.8,0-14.66,0-29.32,0-43.99,0-3.01,.24-3.3,3.25-3.26,4.96,.07,9.92-.21,14.88,.21,11.96,1.02,21.79,11.36,21.98,23.39,.12,8,.02,15.99,.02,23.99h0Zm-11.87,4.71c-.03-5.41-3.85-9.23-9.22-9.22-5.34,.01-9.18,3.91-9.16,9.3,.02,5.15,4.23,9.3,9.34,9.23,5.1-.07,9.06-4.15,9.03-9.31Z"/>
  <path d="M46.26,47.64c0,14.79,0,29.59,0,44.38,0,2.88-.21,3.19-3.14,3.19-7.06,0-14.12,.17-21.17-.29-10.43-.68-19.79-9.52-21.55-20.35-.26-1.57-.39-3.14-.39-4.74,.02-14.86-.04-29.71,.03-44.57C.09,16.02,3.96,8.74,11.82,3.69,15.84,1.1,20.33,.05,25.07,.03c6.11-.03,12.22-.02,18.33,0,2.56,0,2.86,.3,2.86,2.86,0,14.92,0,29.84,0,44.76Zm-8.12,0c0-12.38-.03-24.76,.03-37.14,0-1.81-.56-2.48-2.4-2.42-3.37,.11-6.75-.02-10.12,.04-10.46,.2-17.41,6.93-17.47,17.15-.09,15.05-.1,30.1,0,45.14,.06,9.5,7.14,16.39,16.64,16.47,3.63,.03,7.26-.09,10.88,.05,1.99,.08,2.48-.66,2.47-2.53-.07-12.25-.04-24.51-.03-36.76Z"/>
  <path d="M210.61,87.3c-6.07-.12-4.84,.98-6.7-5.1-1.76-5.77-3.23-11.62-4.83-17.43-.19-.67-.34-1.36-.61-2-.22-.55-.17-1.46-1-1.42-.68,.03-.64,.85-.8,1.37-.99,3.41-1.98,6.83-2.94,10.25-1.19,4.21-2.36,8.43-3.51,12.66-.32,1.17-1.02,1.69-2.2,1.68-2.48-.01-4.96-.03-7.45-.01-1.29,0-1.97-.66-2.3-1.85-.83-3-1.7-5.98-2.54-8.97-2.81-9.89-5.62-19.78-8.43-29.67-.68-2.39-1.33-3.47,2.24-3.52,1.58-.02,3.15-.18,4.75-.06,1.68,.13,2.38,.95,2.79,2.53,2.11,8.11,4.32,16.19,6.53,24.27,.17,.62,.08,1.66,.96,1.66,.99,0,.9-1.09,1.1-1.76,2.45-8.28,4.88-16.56,7.27-24.85,.34-1.16,.95-1.74,2.16-1.68,.06,0,.13,0,.19,0,6.21-.26,6.27-.28,8.04,5.66,1.99,6.69,3.87,13.42,5.8,20.13,.09,.31,.13,.63,.27,.91,.35,.69,.16,1.94,1.18,1.91,.88-.03,.76-1.19,.95-1.88,2.21-8.15,4.42-16.3,6.57-24.46,.39-1.48,1.06-2.17,2.69-2.37,2-.24,3.93,.14,5.89,.12,1.62-.02,1.92,.73,1.5,2.2-1.92,6.58-3.77,13.18-5.65,19.77-1.83,6.41-3.76,12.79-5.48,19.23-.54,2.03-1.47,2.94-3.57,2.71-.94-.1-1.91-.02-2.86-.02Z"/>
  <path d="M354.64,65.36c0-6.48,.05-12.95-.03-19.43-.03-1.91,.74-2.75,2.55-2.63,1.77,.12,3.53-.24,5.32-.01,1.56,.19,2.06,.96,2.06,2.38-.02,4.06,.07,8.13-.03,12.19-.05,1.85,.64,2.43,2.44,2.4,4.96-.09,9.93-.08,14.89,0,1.67,.02,2.24-.6,2.21-2.23-.08-4.12,.01-8.25-.04-12.38-.02-1.62,.61-2.33,2.25-2.27,1.72,.06,3.44,.06,5.15,0,1.65-.07,2.26,.67,2.25,2.28-.04,6.35-.01,12.7-.01,19.04,0,6.67,0,13.33,0,20,0,2.36-.26,2.59-2.66,2.61-1.53,.01-3.06-.06-4.58,.01-1.71,.09-2.41-.62-2.39-2.34,.06-4.19-.04-8.38,.05-12.57,.04-1.74-.57-2.35-2.32-2.32-4.9,.09-9.8,.02-14.7,.04-2.27,0-2.48,.23-2.5,2.55-.02,3.94,0,7.87-.01,11.81-.01,2.43-.38,2.79-2.74,2.83-1.46,.02-2.93,.01-4.39,0-2.53-.03-2.75-.23-2.76-2.7-.01-6.41,0-12.82,0-19.24Z"/>
  <path d="M141.2,88.44c-6.49,.12-12.29-1.35-17.91-3.78-1.41-.61-1.62-1.45-.98-2.7,.14-.28,.26-.59,.44-.84,1.04-1.51,1.4-3.7,3.04-4.51,1.73-.85,3.26,.96,4.91,1.47,5.82,1.79,11.65,2.67,17.64,.9,1.07-.32,2-.8,2.82-1.52,1.96-1.71,1.76-4.46-.52-5.71-3.19-1.75-6.79-2.05-10.28-2.72-4.5-.87-9.05-1.51-13.08-3.93-6.81-4.09-7.25-12.73-.94-17.65,4.94-3.85,10.71-4.86,16.72-4.7,4.66,.12,9.2,1.12,13.6,2.72,1.49,.54,1.84,1.41,1.22,2.79-.05,.12-.09,.24-.16,.35-.93,1.65-.87,4.09-2.53,4.98-1.63,.88-3.44-.75-5.2-1.17-5.03-1.19-10.04-1.58-15.07-.13-1.52,.44-2.91,1.13-3.04,2.97-.14,1.98,1.29,2.75,2.83,3.35,4.24,1.65,8.82,1.87,13.18,3.04,3.27,.87,6.43,1.87,9.4,3.59,6.59,3.8,5.61,13.49,1.93,17.41-3.17,3.39-7.27,4.77-11.71,5.34-2.2,.28-4.41,.63-6.33,.46Z"/>
  <path d="M302.55,63.53c.7-8.19,4.97-15.48,13.86-19.5,8.61-3.89,16.74-2.59,24.23,3.08,1.44,1.09,2.61,2.4,3.75,3.78,.78,.95,.87,1.81-.08,2.66-1.56,1.4-3.11,2.81-4.71,4.17-1.25,1.06-2.13,.42-3.02-.67-4.36-5.31-12.2-6.44-17.89-2.55-6.05,4.14-7.21,11.05-4.5,16.65,2.91,5.99,10.21,8.74,16.41,6.58,2.63-.92,4.77-2.4,6.44-4.55,.84-1.08,1.56-1.11,2.51-.26,1.56,1.4,3.14,2.78,4.71,4.17,.92,.82,.94,1.61,.18,2.64-7.78,10.4-23.45,12.09-33.3,3.71-5.77-4.91-8.47-11.08-8.6-19.92Z"/>
  <path d="M272.85,69.92c0-4.89-.04-9.78,.02-14.67,.02-1.64-.59-2.28-2.24-2.24-2.99,.08-5.98,.04-8.97,.02-2.36-.01-2.58-.25-2.6-2.66-.02-1.71,.01-3.43,0-5.14,0-1.14,.46-1.79,1.67-1.86,1.14-.07,2.28-.28,3.42-.28,8.98-.02,17.95-.16,26.92,.03,6.39,.14,5.39-.03,5.46,5.4,.06,4.9,.3,4.51-4.56,4.51-2.23,0-4.46-.02-6.68,.01-2.12,.03-2.57,.4-2.41,2.68,.55,7.99,.2,15.99,.28,23.98,.02,2.02-.21,4.05-.25,6.07-.02,1.1-.65,1.47-1.57,1.48-2.16,.04-4.33,0-6.49,.04-1.67,.03-1.99-.93-1.99-2.33,.03-5.02,.01-10.03,0-15.05Z"/>
  <path d="M238.83,65.2c0-6.34,0-12.69,0-19.03,0-2.61,.17-2.77,2.85-2.79,1.78-.01,3.56,.03,5.34,0,1.4-.03,2.13,.52,2.13,2-.02,13.26-.01,26.52,0,39.78,0,1.5-.66,2.2-2.21,2.15-1.97-.06-3.94-.06-5.91,0-1.67,.05-2.22-.74-2.21-2.32,.04-6.6,.02-13.2,.02-19.79h0Z"/>
  <path d="M370.28,20.38c0-6.76,5.74-12.52,12.52-12.56,6.79-.04,12.4,5.65,12.43,12.6,.03,6.92-5.62,12.68-12.39,12.62-7.04-.05-12.56-5.61-12.56-12.67Zm19.13,.01c-.01-3.8-2.84-6.63-6.64-6.65-3.69-.02-6.7,2.97-6.7,6.63,0,3.85,2.92,6.72,6.79,6.7,3.83-.03,6.56-2.81,6.54-6.68Z"/>
  <path d="M123.39,20.57c0-2.86-.04-5.71,.02-8.57,.02-1.13-.48-2.53,1.01-3.19,1.38-.61,4.02-.11,4.94,1.03,1.63,2.03,3.15,4.14,4.72,6.22,1.22,1.62,2.43,3.26,3.66,4.87,.25,.33,.46,.89,1,.7,.53-.18,.39-.75,.39-1.17,.02-2.98-.01-5.97,.03-8.95,.04-2.75,2.28-4.01,4.67-2.64,1.05,.6,.94,1.75,.96,2.73,.05,3.62,.03,7.24,.03,10.85,0,2.28,.03,4.57-.02,6.85-.03,1.12,.1,2.51-1.33,2.85-1.6,.38-3.3,.64-4.53-1-2.74-3.66-5.49-7.31-8.24-10.95-.37-.49-.68-1.33-1.37-1.14-.88,.24-.51,1.18-.52,1.82-.04,2.92,0,5.84-.03,8.76-.03,2.29-.58,2.76-2.89,2.71-2.1-.05-2.47-.42-2.47-2.66-.01-3.05,0-6.09,0-9.14,0,0-.01,0-.02,0Z"/>
  <path d="M315.27,20.52c0,2.86,.04,5.71-.02,8.57-.02,1.14,.42,2.52-1.12,3.12-1.62,.63-3.79,.09-4.82-1.27-2.76-3.65-5.48-7.32-8.23-10.98-.36-.48-.59-1.37-1.32-1.18-.76,.2-.49,1.07-.49,1.67-.02,3.11,.03,6.22,.01,9.33-.01,2.19-.47,2.59-2.77,2.58-2.15,0-2.62-.42-2.63-2.53-.03-5.97-.03-11.93,0-17.9,0-1.15-.3-2.54,1.16-3.14,1.57-.65,4.14-.05,5.06,1.18,2.4,3.2,4.75,6.44,7.15,9.64,.61,.82,1.07,2.31,2.22,1.96,.87-.27,.37-1.71,.39-2.62,.05-2.73,.06-5.46,.02-8.19-.03-1.89,1.08-2.14,2.61-2.11,1.53,.03,2.83,.09,2.79,2.16-.06,3.24-.02,6.47-.02,9.71h-.01Z"/>
  <path d="M183.78,20.36c0-2.79-.05-5.59,.02-8.38,.03-1.12-.56-2.74,1.02-3.11,1.68-.4,3.59-.72,4.92,1.01,1.67,2.16,3.3,4.35,4.95,6.52,1.15,1.52,2.29,3.04,3.47,4.54,.22,.28,.63,.63,.9,.59,.58-.08,.43-.69,.44-1.1,.02-2.79,.04-5.59,.01-8.38-.03-3.59,1.08-3.5,4.19-3.32,1.16,.07,1.39,1.03,1.42,1.94,.07,1.71,.19,3.44,.02,5.14-.43,4.44,.01,8.87-.15,13.3-.04,1.12,.4,2.54-1.12,3.14-1.54,.61-3.7,.06-4.66-1.21-2.79-3.7-5.55-7.43-8.35-11.12-.35-.47-.66-1.32-1.39-1.02-.56,.24-.28,1.03-.29,1.58-.03,2.92,0,5.84-.03,8.76-.03,2.66-.46,3.14-2.67,3.14-2.29,0-2.69-.44-2.7-3.07-.01-2.98,0-5.97,0-8.95Z"/>
  <path d="M333.95,20.33c0-3.05-.02-6.09,0-9.14,.02-2.21,.3-2.49,2.57-2.51,2.61-.02,5.22-.07,7.82,0,5.88,.18,11.1,4.91,11.46,10.29,.45,6.8-3.59,12.06-10.06,13.1-3.23,.52-6.48,.2-9.71,.27-1.57,.03-2.1-.88-2.1-2.31,.02-3.24,0-6.47,0-9.71Zm5.44,.01s0,0,0,0c0,.44,0,.89,0,1.33,.12,5.43-1.08,5.14,5.37,4.89,4.44-.17,6.97-5.13,4.79-9.01-1.58-2.81-6.21-4.45-9.19-3.27-.8,.32-.96,.94-.96,1.68,0,1.46,0,2.92,0,4.38Z"/>
  <path d="M257.16,20.36c0-3.17,.03-6.35-.01-9.52-.03-1.71,.63-2.3,2.41-2.24,4.45,.15,8.91,.06,13.36,.08,2.35,.01,2.65,.31,2.65,2.41,0,2.14-.46,2.58-2.78,2.59-2.8,.02-5.6,.05-8.4,0-1.53-.03-2.15,.55-2.15,2.13,0,1.61,.68,2.12,2.19,2.09,2.61-.06,5.22,.02,7.83-.02,1.62-.02,2.55,.54,2.5,2.31-.05,1.62-.67,2.43-2.44,2.37-2.67-.09-5.34,.04-8.01-.03-1.63-.05-2.09,.69-2.06,2.19,.03,1.48,.16,2.68,2.09,2.65,2.93-.04,5.85,.03,8.78-.04,1.78-.04,2.51,.65,2.51,2.47,0,1.74-.56,2.6-2.4,2.58-4.52-.05-9.03-.04-13.55,0-1.77,.02-2.55-.71-2.52-2.5,.06-3.17,.02-6.35,.02-9.52,0,0,.01,0,.02,0Z"/>
  <path d="M231.02,8.67c2.61,0,5.22,.05,7.83-.02,1.85-.04,2.05,1.07,1.99,2.49-.06,1.37,.3,2.98-1.9,2.99-.96,0-1.92,.08-2.86,0-1.65-.14-2.26,.5-2.23,2.18,.08,4.38,.04,8.76,.02,13.14,0,.99,.23,2.23-.97,2.65-1.32,.47-2.78,.51-4.11-.05-.84-.36-.66-1.29-.66-2.04-.02-4.57-.08-9.14-.02-13.72,.02-1.55-.5-2.27-2.08-2.16-.7,.05-1.4,0-2.1,0-2.86,0-4-1.72-2.98-4.45,.37-1,1.2-1.02,2.04-1.02,2.67,0,5.35,0,8.02,0h0Z"/>
  <path d="M167.07,20.48c0,3.23-.03,6.47,.01,9.7,.02,1.49-.54,2.19-2.12,2.21-2.75,.04-3.55-.23-3.57-1.99-.07-6.59-.07-13.18,.06-19.77,.04-2,.52-2.06,3.61-1.97,1.65,.05,2.04,.91,2.03,2.32-.03,3.17,0,6.34,0,9.51,0,0,0,0,0,0Z"/>
  <path d="M33,28.69c0,5.17-3.86,9.09-8.96,9.09-5.18,0-9.16-3.86-9.18-8.9-.02-5.13,4.01-9.33,9.02-9.39,5.1-.06,9.12,3.99,9.12,9.21Z"/>
</svg>